<svg id="Layer_1" data-name="Layer 1" xmlns="http://www.w3.org/2000/svg" viewBox="0 0 276.51 56.4"><defs><style>.cls-1{fill:#fff;}</style></defs><path class="cls-1" d="M23,37.92l-12.34-6q-4.71,6.43-5.26,8.5a4.5,4.5,0,0,1-1.75,2.47,4.23,4.23,0,0,1-1.95,1C.56,43.87,0,43.45,0,42.59c0-.48.66-1.85,2-4.13a84.77,84.77,0,0,1,5.45-8.07c-1.29-.52-2.09-.87-2.39-1a.89.89,0,0,1-.36-1A6.5,6.5,0,0,1,5.82,26,14.34,14.34,0,0,1,7.2,24.19a3.48,3.48,0,0,1,1.08-.75,5.21,5.21,0,0,1,1.31-.38l3.86-.49Q16,19.07,19.06,15c2-2.71,3.59-4.81,4.72-6.32q-5.13.69-7.16,1.15l-3.62.7A16.2,16.2,0,0,0,11,11c-.39.14-.59.34-.59.61s.24.4.72.49a11.18,11.18,0,0,0,1.82.13,14.58,14.58,0,0,1,1.7.08c.4.05.6.18.6.38s-.27.34-.8.37-2,.11-4.5.21c-1.39,0-2.57.09-3.51.14s-1.61.06-2,.06a1.5,1.5,0,0,1-1.18-.46,1.72,1.72,0,0,1-.43-1.21,6.79,6.79,0,0,1,.63-2.06,14.07,14.07,0,0,1,1.76-3A8.67,8.67,0,0,1,7.82,4.35a22.93,22.93,0,0,1,5.18-2A57.16,57.16,0,0,1,20.82.64,57.46,57.46,0,0,1,29.35,0a42.72,42.72,0,0,1,5,.29c1.63.2,3.1.44,4.42.72a25.7,25.7,0,0,1,3.13.85,9.47,9.47,0,0,1,4.56,3A6.88,6.88,0,0,1,48,9.23a13.12,13.12,0,0,1-.81,4.53,12.8,12.8,0,0,1-2.45,4.09,13.16,13.16,0,0,1-4,3,29.79,29.79,0,0,1-5.76,2,83.17,83.17,0,0,1-9.33,1.8q-5.46.78-12.2,1.14,5,1.77,9.41,3.55t7.36,3.18c2,.93,3.56,1.68,4.69,2.27a25.61,25.61,0,0,1,3.11,1.8,2.58,2.58,0,0,1,1,1.44A13.11,13.11,0,0,1,39.26,41,15.31,15.31,0,0,1,39,44.38c-.19.73-.58,1.09-1.19,1.09a5.63,5.63,0,0,1-1.56-.63c-.84-.43-2-1.05-3.48-1.87s-2.83-1.55-4-2.19S25.58,39.18,23,37.92ZM25.84,8.38a3.41,3.41,0,0,1,.05.42c0,.13,0,.32,0,.56a5,5,0,0,1-.57,2.11,17.63,17.63,0,0,1-1.47,2.45q-.9,1.26-2.69,3.6l-3.28,4.3q6.87-1.3,11.72-2.52a65.19,65.19,0,0,0,8-2.44,16.39,16.39,0,0,0,4.73-2.58,3.79,3.79,0,0,0,1.59-2.83c0-1.09-1.11-1.95-3.32-2.57A30.62,30.62,0,0,0,32.49,8c-.66,0-1.35,0-2.08,0s-1.6.1-2.62.19Z"/><path class="cls-1" d="M63.07,30.56v2.19a17,17,0,0,1-3.46,2.61,7.65,7.65,0,0,1-3.77.53q-4.25,5-7.49,5A5.21,5.21,0,0,1,45,39.72a8.35,8.35,0,0,1-2.41-3.31,11.7,11.7,0,0,1-.9-4.68,9.83,9.83,0,0,1,1.39-4.64,21,21,0,0,1,3.6-4.76,20.51,20.51,0,0,1,4.73-3.57,10,10,0,0,1,4.68-1.36,5.12,5.12,0,0,1,2.42.48,1.46,1.46,0,0,1,.88,1.32,2.45,2.45,0,0,1-.75,1.51,2.73,2.73,0,0,1,1.7.87,3.86,3.86,0,0,1,.46,2.2,14,14,0,0,1-.74,4,19.66,19.66,0,0,1-2,4.48l.59.59h.49a2.3,2.3,0,0,0,1.09-.28,7.31,7.31,0,0,0,1-.58ZM56.33,22C54.52,23,53,24,51.69,24.91a22.16,22.16,0,0,0-3.27,2.69,7,7,0,0,0-1.8,2.73c-.55,2.44-.82,3.76-.82,4,0,1.43,1,2.15,3,2.15.94,0,2.51-.8,4.71-2.42A8.6,8.6,0,0,1,53,31.08a11.25,11.25,0,0,1,.85-4.2A34.38,34.38,0,0,1,56.33,22Z"/><path class="cls-1" d="M85.06,24.7q-5.76,6.4-5.76,8.93c0,.94.38,1.41,1.15,1.41a4.93,4.93,0,0,0,2.47-1c1-.66,2.6-1.85,4.76-3.55v2.26Q83,37.32,80.54,39.36c-1.65,1.35-3,2-4.05,2-1.79,0-2.69-1.17-2.69-3.53a6.62,6.62,0,0,1,.33-2.06,13.76,13.76,0,0,1,.9-2.11c.38-.73,1-1.78,1.75-3.14s1.69-2.91,2.72-4.63a20.37,20.37,0,0,0-4.68,3.76A36.69,36.69,0,0,0,71.71,33Q70.44,34.6,69,36.56a27.29,27.29,0,0,1-2.13,2.62,2,2,0,0,1-1.35.67c-.7,0-1.35-.73-1.94-2.2a13.75,13.75,0,0,1-.88-5.1,7.76,7.76,0,0,1,.41-2.81,18.06,18.06,0,0,1,1.62-2.88,31.9,31.9,0,0,1,3.89-5.09,4.64,4.64,0,0,1,3.14-1.62,3.45,3.45,0,0,1,1.69.36,1.2,1.2,0,0,1,.64,1.11,1.46,1.46,0,0,1-.2.69,4.46,4.46,0,0,1-.44.66l-1,1.14q-5.18,5.73-5.17,7.43c0,.63.21,1,.62,1s.77-.42,1.52-1.26,1.72-1.94,2.91-3.31a55.92,55.92,0,0,1,4.22-4.27,46,46,0,0,1,5.55-4.28,5.41,5.41,0,0,1,2.88-1.21c.35,0,.69.48,1,1.44a8.66,8.66,0,0,1,.51,2.91Q86.47,23.23,85.06,24.7Z"/><path class="cls-1" d="M89.44,24.77l.92-2.59,6-2.75q5.4-2.55,7.82-2.55c1.26,0,1.9.58,1.9,1.73a6.8,6.8,0,0,1-.51,2c-.34.92-.91,2.25-1.7,4s-1.72,3.68-2.77,5.87S99,34.92,97.88,37.23q2.46-1.66,4.3-3.09c1.24-1,2.68-2.14,4.34-3.58l.06,2.32q-6.27,5.43-11.64,10.79a62.8,62.8,0,0,1-5.73,9.52c-1.65,2.14-2.9,3.21-3.73,3.21-.58,0-.88-.58-.88-1.73a10.52,10.52,0,0,1,1-4.27,19.64,19.64,0,0,1,2.91-4.52,48.09,48.09,0,0,1,4.65-4.82Q97.26,32.87,99,29.17c1.14-2.48,1.72-4.1,1.72-4.86q0-.72-.69-.72a39.14,39.14,0,0,0-4.88,2.11c-3,1.4-4.88,2.11-5.62,2.11q-.69,0-.69-.75A10,10,0,0,1,89.44,24.77Zm21-16.95a7.74,7.74,0,0,1-.75,2.75,11.48,11.48,0,0,1-1.46,3.17,2.36,2.36,0,0,1-1.94.79c-1.88,0-2.82-.63-2.82-1.87a9.05,9.05,0,0,1,1.74-4.22,6.12,6.12,0,0,1,1.47-1.82,3.66,3.66,0,0,1,1.8-.34C109.76,6.28,110.41,6.79,110.41,7.82Z"/><path class="cls-1" d="M110.12,24.77a39.6,39.6,0,0,1,9.65-6.71q4.68-2.19,7.23-2.19a1.79,1.79,0,0,1,1.27.57,4.25,4.25,0,0,1,.94,1.32,3.11,3.11,0,0,1,.34,1.12.92.92,0,0,1-.46.86,8.55,8.55,0,0,1-1.6.67l.59,1.35c.24.54.42,1,.55,1.32a2.38,2.38,0,0,1,.2.9,6.91,6.91,0,0,1-1.59,2.93c-1,1.43-1.8,2.48-2.22,3.15a4.57,4.57,0,0,0-.64,2.49c0,1.62.74,2.42,2.23,2.42s3.91-1.43,7.16-4.28v2q-8.28,9.2-11.84,9.2a2,2,0,0,1-1.82-.84,4.6,4.6,0,0,1-.54-2.47,23.16,23.16,0,0,1,1.87-7.49q-4.78,5.3-7.1,7.54t-3.83,2.24c-.48,0-1.08-.41-1.8-1.24a11.81,11.81,0,0,1-1.91-3.22,10.42,10.42,0,0,1-.84-4.11,9.34,9.34,0,0,1,.3-2.57,6.19,6.19,0,0,1,1.14-2.11A29.22,29.22,0,0,1,110.12,24.77Zm15.67-3.6a70.56,70.56,0,0,0-12.12,6.6c-2.41,1.82-3.62,3.68-3.62,5.6a3.63,3.63,0,0,0,.36,1.72,1.11,1.11,0,0,0,1,.67,3.72,3.72,0,0,0,1.28-.46A25.69,25.69,0,0,0,119,30Q121.8,26.77,125.79,21.17Z"/><path class="cls-1" d="M154.64,35.63a9.5,9.5,0,0,1,.33-2.11,5.87,5.87,0,0,1,.88-2.11l2.59-3.67c.78-1.11,1.48-2.07,2.09-2.88a25.82,25.82,0,0,1,1.83-2.16q5.59-6,8-9t2.42-4.17a1.38,1.38,0,0,0-.72-1.23,3.63,3.63,0,0,0-1.9-.44,15,15,0,0,0-6.08,1.72q-3.67,1.71-8.56,4.46t-5.44,2.75c-.59,0-.89-.43-.89-1.28a10.25,10.25,0,0,1,.69-3.07c.35-1.44.63-2.56.85-3.35a5.78,5.78,0,0,1,1.1-2.15,10.35,10.35,0,0,1,2.55-2.06c1.19-.74,3-1.75,5.48-3L160.2,3A41.61,41.61,0,0,1,166,1.11a20.89,20.89,0,0,1,4.66-.65q3.79,0,5.39,1.29t1.58,5.61a9.81,9.81,0,0,1-.69,3.93,27.38,27.38,0,0,1-2.68,4.38,99.71,99.71,0,0,1-6.84,9.16q-6.63,7.59-6.64,8.87c0,.48.32.72,1,.72A4.24,4.24,0,0,0,164,33.3a34.43,34.43,0,0,0,3.46-3.2c1.36-1.4,3.23-3.39,5.63-6q3.83-4.12,6.46-7.28c1.76-2.1,3.2-3.9,4.34-5.4s1.73-2.29,1.8-2.4a20.51,20.51,0,0,1,3.64-3.55,6.6,6.6,0,0,1,2.41-1.39c.26,0,.57.24.91.72a7.36,7.36,0,0,1,.9,1.7A4.67,4.67,0,0,1,193.9,8a9.47,9.47,0,0,1-.78,1.58c-.53,1-1.1,1.93-1.71,3s-1.59,2.56-2.94,4.66a128.29,128.29,0,0,0-6.8,11.6q-2.35,4.7-2.36,6.16a1.49,1.49,0,0,0,.38,1,1,1,0,0,0,.77.44,4.77,4.77,0,0,0,1.89-.84,18.55,18.55,0,0,0,3.05-2.4,44.85,44.85,0,0,0,4-4.35,59.7,59.7,0,0,0,3.56-5q1.77-2.78,3.14-5.27c.92-1.65,1.85-3.4,2.78-5.23l-.55-1.67a3.18,3.18,0,0,1-.13-1,11.58,11.58,0,0,1,1.93-3.19q1.92-2.7,2.55-2.7c.46,0,.84.33,1.16,1a4.55,4.55,0,0,1,.47,2,19.86,19.86,0,0,1-1,4.43,71,71,0,0,1-3.11,8A75.43,75.43,0,0,1,195,29.74,41.12,41.12,0,0,1,189.24,37a31.56,31.56,0,0,1-5.51,4.5A8.42,8.42,0,0,1,180.1,43a4.62,4.62,0,0,1-2.82-1.18,8.72,8.72,0,0,1-1.72-1.88,5.25,5.25,0,0,1-.67-1.82,13.92,13.92,0,0,1-.16-2.29,17.45,17.45,0,0,1,1.54-6.51A97.61,97.61,0,0,1,180.85,20q-9.53,11.58-14.74,16.85t-7.64,5.27a3.18,3.18,0,0,1-2.71-1.92A8.87,8.87,0,0,1,154.64,35.63Z"/><path class="cls-1" d="M202.9,24.77a39.6,39.6,0,0,1,9.65-6.71q4.68-2.19,7.23-2.19a1.79,1.79,0,0,1,1.27.57,4.25,4.25,0,0,1,.94,1.32,3.11,3.11,0,0,1,.34,1.12.92.92,0,0,1-.46.86,8.55,8.55,0,0,1-1.6.67l.59,1.35c.24.54.42,1,.55,1.32a2.59,2.59,0,0,1,.2.9A6.91,6.91,0,0,1,220,26.91c-1.05,1.43-1.8,2.48-2.22,3.15a4.57,4.57,0,0,0-.64,2.49c0,1.62.74,2.42,2.23,2.42s3.91-1.43,7.16-4.28v2q-8.28,9.2-11.84,9.2a2,2,0,0,1-1.82-.84,4.6,4.6,0,0,1-.54-2.47,23.16,23.16,0,0,1,1.87-7.49q-4.78,5.3-7.1,7.54t-3.83,2.24c-.48,0-1.08-.41-1.8-1.24a11.81,11.81,0,0,1-1.91-3.22,10.42,10.42,0,0,1-.84-4.11,9.34,9.34,0,0,1,.3-2.57,6,6,0,0,1,1.14-2.11A28,28,0,0,1,202.9,24.77Zm15.67-3.6a70.56,70.56,0,0,0-12.12,6.6c-2.41,1.82-3.62,3.68-3.62,5.6a3.63,3.63,0,0,0,.36,1.72,1.11,1.11,0,0,0,1,.67,3.72,3.72,0,0,0,1.28-.46A25.69,25.69,0,0,0,211.73,30Q214.58,26.77,218.57,21.17ZM214,9.78A1.68,1.68,0,0,1,212.19,8,5.83,5.83,0,0,1,213,5.94a12.17,12.17,0,0,1,1.92-2.73A3.17,3.17,0,0,1,217.16,2a1.89,1.89,0,0,1,1.36.47A1.73,1.73,0,0,1,219,3.79a6.75,6.75,0,0,1-1.8,3.7C216,9,214.94,9.78,214,9.78Zm9.29,0A1.86,1.86,0,0,1,222,9.36a1.33,1.33,0,0,1-.53-1A5.63,5.63,0,0,1,222.35,6a13.12,13.12,0,0,1,2-2.8A3.2,3.2,0,0,1,226.55,2a1.58,1.58,0,0,1,1.13.44,1.49,1.49,0,0,1,.47,1.16,7.46,7.46,0,0,1-1.62,3.83C225.45,9,224.36,9.78,223.25,9.78Z"/><path class="cls-1" d="M241.89,30.26v2.42q-6.84,9.06-11.12,9.06a4,4,0,0,1-3.65-2.53,14.44,14.44,0,0,1-1.32-6.66,25.07,25.07,0,0,1,1.57-7.93,58.1,58.1,0,0,1,4.2-9.33A59.19,59.19,0,0,1,237,7.05a20.15,20.15,0,0,1,5.25-4.92,3.23,3.23,0,0,1,1.53-.59.89.89,0,0,1,.92.6A6.67,6.67,0,0,1,245,4.22q0,4.55-3.7,11.17A67.23,67.23,0,0,1,231,28.92a14.83,14.83,0,0,0-.33,2.62,5.89,5.89,0,0,0,.9,3.4,2.87,2.87,0,0,0,2.5,1.31,3.18,3.18,0,0,0,1.77-.64,16.07,16.07,0,0,0,2-1.59C238.5,33.39,239.87,32.14,241.89,30.26Zm-9.78-5.89a31.87,31.87,0,0,0,3.29-3.79,46.43,46.43,0,0,0,3-4.55,35.83,35.83,0,0,0,2.21-4.35,8.41,8.41,0,0,0,.8-2.91c0-.5-.17-.75-.52-.75a1.9,1.9,0,0,0-.75.36q-2,1.63-4.49,6.39A38.52,38.52,0,0,0,232.11,24.37Z"/><path class="cls-1" d="M257.24,30.26v2.42q-6.84,9.06-11.13,9.06a4,4,0,0,1-3.64-2.53,14.31,14.31,0,0,1-1.33-6.66,25.07,25.07,0,0,1,1.57-7.93,57.31,57.31,0,0,1,4.21-9.33,58.29,58.29,0,0,1,5.46-8.24,20.15,20.15,0,0,1,5.25-4.92,3.22,3.22,0,0,1,1.54-.59.89.89,0,0,1,.91.6,6.67,6.67,0,0,1,.23,2.08q0,4.55-3.7,11.17a67.23,67.23,0,0,1-10.3,13.53,14.83,14.83,0,0,0-.33,2.62,5.89,5.89,0,0,0,.9,3.4,2.88,2.88,0,0,0,2.5,1.31,3.18,3.18,0,0,0,1.77-.64,16.89,16.89,0,0,0,2-1.59C253.84,33.39,255.21,32.14,257.24,30.26Zm-9.79-5.89a31.87,31.87,0,0,0,3.29-3.79,48.38,48.38,0,0,0,3-4.55,37.12,37.12,0,0,0,2.2-4.35,8.48,8.48,0,0,0,.81-2.91c0-.5-.18-.75-.53-.75a1.9,1.9,0,0,0-.75.36c-1.33,1.09-2.83,3.22-4.48,6.39A38.17,38.17,0,0,0,247.45,24.37Z"/><path class="cls-1" d="M262.18,31.8v.82a4.38,4.38,0,0,0,.95,3,3.14,3.14,0,0,0,2.48,1.08,8.11,8.11,0,0,0,3.32-.76,17.72,17.72,0,0,0,3.42-2q1.69-1.24,4.16-3.34v2a41,41,0,0,1-6.94,6.82A11,11,0,0,1,263,41.81a5.47,5.47,0,0,1-4.62-2.26,10.06,10.06,0,0,1-1.7-6.18,12.27,12.27,0,0,1,1.6-6.23,23.63,23.63,0,0,1,5.24-5.91,19.9,19.9,0,0,1,4.94-3.2A11,11,0,0,1,272.84,17a3.85,3.85,0,0,1,2.44.7,2.51,2.51,0,0,1,.9,2.11,6.81,6.81,0,0,1-1.54,4.11A17.72,17.72,0,0,1,270,27.92,48.36,48.36,0,0,1,262.18,31.8Zm.32-2.13a18.46,18.46,0,0,0,5-2.84,14.32,14.32,0,0,0,3.09-3.26,5,5,0,0,0,1-2.27c0-.5-.23-.76-.69-.76a4.76,4.76,0,0,0-1.91.76,15.43,15.43,0,0,0-2.68,2,14.43,14.43,0,0,0-2.44,2.85A9.24,9.24,0,0,0,262.5,29.67Z"/></svg>